<?xml version="1.0" encoding="UTF-8" ?>
<!DOCTYPE svg PUBLIC "-//W3C//DTD SVG 1.1//EN" "http://www.w3.org/Graphics/SVG/1.1/DTD/svg11.dtd">
<svg width="1600" height="600" xmlns="http://www.w3.org/2000/svg" version="1.1">
  <text x="800" y="30" text-anchor="middle" font-family="Arial" font-size="20" font-weight="bold">
    Chromatogram: A
  </text>
  <rect x="50" y="80" width="1500" height="470" fill="white" stroke="black" stroke-width="1"/>
  <line x1="350" y1="80" x2="350" y2="550" stroke="#DDDDDD" stroke-width="1"/>
  <line x1="650" y1="80" x2="650" y2="550" stroke="#DDDDDD" stroke-width="1"/>
  <line x1="950" y1="80" x2="950" y2="550" stroke="#DDDDDD" stroke-width="1"/>
  <line x1="1250" y1="80" x2="1250" y2="550" stroke="#DDDDDD" stroke-width="1"/>
  <text x="350" y="570" text-anchor="middle" fill="black" font-family="Arial" font-size="12">
    600
  </text>
  <text x="650" y="570" text-anchor="middle" fill="black" font-family="Arial" font-size="12">
    700
  </text>
  <text x="950" y="570" text-anchor="middle" fill="black" font-family="Arial" font-size="12">
    800
  </text>
  <text x="1250" y="570" text-anchor="middle" fill="black" font-family="Arial" font-size="12">
    900
  </text>
  <polyline points="50,550 53,550 56,550 59,550 62,550 65,550 68,550 71,550 74,550 77,550 80,549 83,549 86,549 89,550 92,550 95,550 98,550 101,550 104,548 107,548 110,550 113,550 116,550 119,541 122,516 125,475 128,420 131,361 134,309 137,276 140,271 143,294 146,339 149,398 152,455 155,502 158,533 161,549 164,550 167,550 170,548 173,547 176,548 179,549 182,550 185,549 188,549 191,548 194,548 197,548 200,549 203,549 206,549 209,549 212,549 215,549 218,549 221,549 224,550 227,550 230,550 233,550 236,550 239,550 242,549 245,548 248,548 251,548 254,548 257,548 260,549 263,550 266,550 269,550 272,550 275,550 278,550 281,550 284,550 287,550 290,550 293,550 296,550 299,550 302,550 305,550 308,550 311,550 314,550 317,550 320,550 323,550 326,550 329,549 332,549 335,549 338,548 341,548 344,548 347,548 350,548 353,548 356,549 359,550 362,550 365,550 368,550 371,550 374,548 377,548 380,550 383,550 386,550 389,542 392,519 395,481 398,430 401,375 404,326 407,296 410,291 413,314 416,359 419,414 422,467 425,511 428,538 431,550 434,550 437,550 440,548 443,547 446,548 449,549 452,550 455,550 458,550 461,549 464,549 467,549 470,549 473,549 476,550 479,550 482,550 485,550 488,550 491,550 494,550 497,550 500,550 503,550 506,550 509,550 512,550 515,550 518,550 521,550 524,550 527,550 530,550 533,550 536,550 539,550 542,550 545,550 548,550 551,550 554,550 557,550 560,550 563,550 566,550 569,550 572,550 575,550 578,550 581,550 584,550 587,550 590,550 593,550 596,550 599,550 602,550 605,550 608,550 611,550 614,550 617,550 620,550 623,550 626,550 629,550 632,550 635,550 638,550 641,550 644,550 647,550 650,550 653,550 656,550 659,550 662,550 665,550 668,550 671,550 674,550 677,550 680,550 683,550 686,550 689,549 692,550 695,550 698,550 701,550 704,550 707,550 710,550 713,550 716,550 719,550 722,550 725,550 728,550 731,550 734,550 737,549 740,548 743,549 746,549 749,549 752,550 755,549 758,549 761,549 764,550 767,550 770,550 773,550 776,550 779,548 782,547 785,548 788,550 791,550 794,548 797,527 800,488 803,433 806,370 809,315 812,282 815,278 818,307 821,359 824,421 827,478 830,521 833,545 836,550 839,550 842,548 845,545 848,545 851,547 854,548 857,549 860,549 863,549 866,549 869,549 872,550 875,550 878,550 881,550 884,550 887,550 890,550 893,550 896,550 899,548 902,546 905,546 908,549 911,550 914,550 917,542 920,513 923,467 926,409 929,351 932,307 935,289 938,302 941,343 944,400 947,458 950,506 953,537 956,550 959,550 962,550 965,546 968,544 971,545 974,547 977,548 980,548 983,548 986,547 989,547 992,548 995,548 998,548 1001,546 1004,545 1007,544 1010,545 1013,547 1016,550 1019,550 1022,550 1025,550 1028,547 1031,545 1034,547 1037,550 1040,550 1043,549 1046,528 1049,488 1052,431 1055,368 1058,315 1061,290 1064,298 1067,339 1070,399 1073,458 1076,497 1079,502 1082,471 1085,414 1088,351 1091,304 1094,288 1097,309 1100,363 1103,434 1106,501 1109,542 1112,543 1115,501 1118,426 1121,336 1124,256 1127,206 1130,200 1133,237 1136,307 1139,389 1142,463 1145,516 1148,544 1151,550 1154,550 1157,550 1160,550 1163,550 1166,540 1169,511 1172,461 1175,398 1178,335 1181,288 1184,270 1187,287 1190,331 1193,393 1196,454 1199,504 1202,537 1205,550 1208,550 1211,550 1214,548 1217,547 1220,549 1223,550 1226,550 1229,550 1232,549 1235,547 1238,546 1241,546 1244,547 1247,548 1250,550 1253,550 1256,550 1259,550 1262,550 1265,550 1268,550 1271,550 1274,549 1277,549 1280,548 1283,548 1286,549 1289,550 1292,550 1295,550 1298,550 1301,550 1304,550 1307,550 1310,550 1313,550 1316,550 1319,550 1322,550 1325,550 1328,550 1331,550 1334,550 1337,550 1340,550 1343,550 1346,550 1349,550 1352,550 1355,550 1358,550 1361,550 1364,550 1367,549 1370,546 1373,546 1376,548 1379,550 1382,550 1385,548 1388,530 1391,498 1394,456 1397,414 1400,381 1403,367 1406,377 1409,408 1412,449 1415,492 1418,525 1421,545 1424,550 1427,550 1430,548 1433,545 1436,544 1439,547 1442,550 1445,550 1448,550 1451,550 1454,547 1457,542 1460,541 1463,545 1466,550 1469,550 1472,543 1475,503 1478,431 1481,337 1484,241 1487,168 1490,141 1493,167 1496,238 1499,333 1502,427 1505,500 1508,542 1511,550 1514,550 1517,546 1520,541 1523,542 1526,545 1529,550 1532,550 1535,550 1538,549 1541,547 1544,546 1547,546" fill="none" stroke="green" stroke-width="1.5"/>
  <polyline points="50,353 53,439 56,511 59,548 62,537 65,477 68,380 71,270 74,173 77,114 80,107 83,152 86,236 89,335 92,428 95,498 98,538 101,550 104,550 107,546 110,542 113,542 116,543 119,546 122,547 125,545 128,542 131,540 134,539 137,541 140,543 143,545 146,547 149,548 152,548 155,547 158,546 161,546 164,546 167,548 170,549 173,550 176,549 179,548 182,547 185,548 188,550 191,550 194,550 197,541 200,516 203,476 206,424 209,366 212,315 215,282 218,271 221,287 224,324 227,376 230,430 233,479 236,516 239,540 242,550 245,550 248,550 251,547 254,544 257,544 260,546 263,547 266,549 269,548 272,547 275,544 278,542 281,540 284,541 287,543 290,545 293,547 296,548 299,546 302,544 305,545 308,550 311,550 314,550 317,537 320,500 323,441 326,370 329,300 332,249 335,230 338,249 341,300 344,368 347,439 350,496 353,533 356,550 359,550 362,550 365,545 368,543 371,543 374,545 377,546 380,547 383,546 386,545 389,543 392,543 395,543 398,543 401,543 404,545 407,547 410,549 413,549 416,549 419,548 422,547 425,547 428,548 431,550 434,550 437,550 440,550 443,548 446,546 449,547 452,550 455,550 458,550 461,530 464,487 467,419 470,336 473,254 476,191 479,163 482,175 485,225 488,299 491,380 494,456 497,515 500,550 503,550 506,541 509,487 512,403 515,302 518,206 521,137 524,118 527,153 530,232 533,331 536,418 539,469 542,472 545,432 548,370 551,313 554,283 557,292 560,337 563,404 566,471 569,517 572,529 575,506 578,456 581,397 584,347 587,322 590,329 593,367 596,425 599,487 602,534 605,550 608,533 611,484 614,417 617,352 620,304 623,288 626,306 629,351 632,409 635,468 638,513 641,540 644,550 647,550 650,547 653,544 656,545 659,547 662,548 665,548 668,546 671,545 674,548 677,550 680,550 683,545 686,520 689,477 692,422 695,365 698,324 701,309 704,325 707,368 710,424 713,480 716,522 719,546 722,550 725,550 728,546 731,543 734,542 737,544 740,547 743,548 746,549 749,548 752,546 755,546 758,546 761,547 764,548 767,549 770,550 773,550 776,550 779,550 782,550 785,550 788,549 791,547 794,547 797,547 800,548 803,549 806,550 809,550 812,550 815,550 818,550 821,550 824,550 827,550 830,550 833,550 836,550 839,550 842,550 845,550 848,550 851,550 854,550 857,550 860,550 863,548 866,545 869,544 872,544 875,546 878,549 881,550 884,550 887,549 890,545 893,544 896,548 899,550 902,550 905,542 908,508 911,449 914,377 917,307 920,257 923,244 926,271 929,329 932,402 935,470 938,520 941,547 944,550 947,550 950,547 953,544 956,545 959,549 962,550 965,550 968,550 971,550 974,549 977,547 980,546 983,546 986,547 989,548 992,549 995,550 998,550 1001,550 1004,550 1007,550 1010,550 1013,550 1016,550 1019,550 1022,550 1025,550 1028,550 1031,550 1034,550 1037,550 1040,550 1043,550 1046,550 1049,550 1052,550 1055,550 1058,550 1061,550 1064,550 1067,550 1070,550 1073,550 1076,550 1079,550 1082,550 1085,550 1088,550 1091,550 1094,550 1097,550 1100,550 1103,549 1106,550 1109,550 1112,550 1115,550 1118,550 1121,549 1124,547 1127,546 1130,549 1133,550 1136,550 1139,543 1142,516 1145,471 1148,409 1151,345 1154,288 1157,254 1160,251 1163,278 1166,328 1169,389 1172,449 1175,498 1178,530 1181,547 1184,550 1187,550 1190,549 1193,548 1196,549 1199,550 1202,550 1205,550 1208,547 1211,544 1214,542 1217,541 1220,542 1223,544 1226,547 1229,549 1232,550 1235,550 1238,550 1241,550 1244,550 1247,550 1250,549 1253,548 1256,547 1259,546 1262,545 1265,545 1268,546 1271,547 1274,548 1277,550 1280,550 1283,550 1286,550 1289,550 1292,550 1295,549 1298,548 1301,548 1304,548 1307,548 1310,549 1313,550 1316,550 1319,550 1322,550 1325,550 1328,550 1331,549 1334,548 1337,549 1340,550 1343,550 1346,550 1349,550 1352,548 1355,545 1358,544 1361,548 1364,550 1367,550 1370,545 1373,516 1376,469 1379,411 1382,358 1385,324 1388,322 1391,351 1394,403 1397,461 1400,510 1403,542 1406,550 1409,550 1412,548 1415,543 1418,543 1421,546 1424,550 1427,550 1430,550 1433,550 1436,550 1439,548 1442,548 1445,548 1448,549 1451,550 1454,550 1457,550 1460,550 1463,549 1466,549 1469,550 1472,550 1475,550 1478,550 1481,550 1484,546 1487,544 1490,546 1493,550 1496,550 1499,550 1502,524 1505,473 1508,400 1511,317 1514,245 1517,204 1520,202 1523,241 1526,308 1529,385 1532,456 1535,510 1538,545 1541,550 1544,550 1547,530" fill="none" stroke="blue" stroke-width="1.5"/>
  <polyline points="50,550 53,550 56,550 59,550 62,550 65,550 68,550 71,550 74,550 77,550 80,550 83,550 86,550 89,550 92,550 95,550 98,549 101,549 104,550 107,550 110,550 113,550 116,550 119,550 122,550 125,550 128,550 131,550 134,550 137,549 140,550 143,550 146,550 149,550 152,542 155,527 158,505 161,480 164,456 167,442 170,439 173,448 176,467 179,492 182,516 185,535 188,546 191,550 194,550 197,550 200,548 203,548 206,550 209,550 212,550 215,550 218,550 221,547 224,546 227,548 230,550 233,550 236,548 239,528 242,493 245,443 248,388 251,340 254,312 257,311 260,337 263,383 266,437 269,486 272,523 275,544 278,550 281,550 284,549 287,547 290,547 293,549 296,550 299,550 302,550 305,550 308,548 311,547 314,547 317,547 320,548 323,550 326,550 329,550 332,550 335,550 338,550 341,550 344,550 347,550 350,547 353,536 356,519 359,496 362,472 365,453 368,444 371,447 374,461 377,483 380,507 383,529 386,544 389,550 392,550 395,550 398,546 401,546 404,549 407,550 410,550 413,541 416,513 419,469 422,414 425,360 428,321 431,306 434,320 437,359 440,411 443,465 446,509 449,538 452,550 455,550 458,550 461,548 464,547 467,549 470,550 473,550 476,550 479,550 482,550 485,549 488,549 491,550 494,550 497,550 500,550 503,550 506,550 509,550 512,550 515,550 518,550 521,550 524,550 527,550 530,550 533,550 536,550 539,550 542,550 545,550 548,550 551,550 554,550 557,550 560,550 563,550 566,550 569,550 572,550 575,550 578,550 581,550 584,550 587,550 590,550 593,550 596,550 599,550 602,550 605,550 608,550 611,550 614,550 617,550 620,550 623,550 626,550 629,550 632,550 635,550 638,550 641,550 644,550 647,550 650,550 653,550 656,550 659,550 662,550 665,550 668,550 671,550 674,550 677,550 680,550 683,549 686,549 689,549 692,550 695,550 698,550 701,550 704,550 707,550 710,549 713,548 716,549 719,550 722,550 725,550 728,550 731,549 734,546 737,545 740,547 743,550 746,550 749,546 752,518 755,468 758,400 761,327 764,267 767,236 770,243 773,286 776,353 779,425 782,488 785,530 788,550 791,550 794,550 797,545 800,543 803,545 806,550 809,550 812,550 815,539 818,514 821,480 824,442 827,409 830,389 833,388 836,407 839,439 842,476 845,511 848,535 851,548 854,550 857,550 860,549 863,548 866,549 869,550 872,550 875,550 878,550 881,549 884,548 887,547 890,546 893,547 896,547 899,547 902,547 905,548 908,549 911,550 914,550 917,550 920,550 923,550 926,550 929,550 932,550 935,550 938,550 941,549 944,548 947,549 950,550 953,550 956,550 959,540 962,521 965,495 968,465 971,440 974,426 977,426 980,444 983,475 986,512 989,545 992,550 995,550 998,502 1001,422 1004,323 1007,226 1010,158 1013,138 1016,172 1019,249 1022,346 1025,439 1028,508 1031,546 1034,550 1037,550 1040,545 1043,541 1046,543 1049,548 1052,550 1055,550 1058,550 1061,550 1064,547 1067,547 1070,547 1073,548 1076,549 1079,550 1082,549 1085,549 1088,549 1091,549 1094,550 1097,550 1100,550 1103,550 1106,550 1109,549 1112,549 1115,549 1118,549 1121,550 1124,550 1127,550 1130,550 1133,550 1136,550 1139,550 1142,550 1145,550 1148,550 1151,550 1154,550 1157,550 1160,550 1163,550 1166,550 1169,550 1172,550 1175,550 1178,550 1181,550 1184,550 1187,550 1190,550 1193,550 1196,550 1199,550 1202,550 1205,550 1208,550 1211,550 1214,550 1217,550 1220,550 1223,550 1226,550 1229,550 1232,550 1235,550 1238,550 1241,550 1244,550 1247,550 1250,550 1253,550 1256,550 1259,550 1262,550 1265,550 1268,550 1271,550 1274,550 1277,550 1280,550 1283,550 1286,550 1289,550 1292,550 1295,550 1298,550 1301,550 1304,550 1307,550 1310,550 1313,550 1316,550 1319,550 1322,550 1325,550 1328,550 1331,549 1334,549 1337,549 1340,550 1343,550 1346,550 1349,550 1352,550 1355,550 1358,550 1361,550 1364,550 1367,550 1370,550 1373,550 1376,550 1379,550 1382,550 1385,550 1388,549 1391,549 1394,550 1397,550 1400,550 1403,550 1406,550 1409,547 1412,547 1415,549 1418,550 1421,550 1424,549 1427,533 1430,504 1433,467 1436,428 1439,400 1442,390 1445,402 1448,431 1451,469 1454,505 1457,533 1460,549 1463,550 1466,550 1469,549 1472,546 1475,547 1478,548 1481,550 1484,550 1487,550 1490,549 1493,549 1496,549 1499,550 1502,550 1505,550 1508,549 1511,549 1514,548 1517,548 1520,549 1523,550 1526,550 1529,550 1532,550 1535,550 1538,550 1541,550 1544,550 1547,550" fill="none" stroke="black" stroke-width="1.5"/>
  <polyline points="50,543 53,544 56,546 59,547 62,549 65,550 68,550 71,549 74,548 77,547 80,547 83,550 86,550 89,550 92,543 95,521 98,486 101,442 104,398 107,364 110,351 113,361 116,391 119,433 122,477 125,514 128,538 131,550 134,550 137,550 140,547 143,545 146,545 149,545 152,545 155,545 158,545 161,544 164,544 167,544 170,545 173,545 176,546 179,547 182,547 185,547 188,548 191,548 194,548 197,547 200,547 203,547 206,546 209,546 212,546 215,547 218,548 221,549 224,549 227,549 230,549 233,548 236,547 239,546 242,546 245,547 248,549 251,549 254,549 257,547 260,547 263,548 266,550 269,550 272,550 275,538 278,510 281,469 284,419 287,372 290,339 293,329 296,345 299,381 302,429 305,477 308,515 311,540 314,550 317,550 320,550 323,547 326,546 329,546 332,548 335,550 338,550 341,550 344,550 347,550 350,550 353,549 356,549 359,548 362,547 365,547 368,547 371,548 374,548 377,549 380,549 383,549 386,549 389,548 392,548 395,548 398,548 401,548 404,548 407,548 410,548 413,548 416,548 419,548 422,549 425,549 428,549 431,549 434,548 437,548 440,548 443,548 446,548 449,549 452,550 455,550 458,550 461,549 464,549 467,549 470,549 473,549 476,550 479,550 482,550 485,550 488,550 491,550 494,550 497,550 500,550 503,550 506,550 509,549 512,548 515,548 518,548 521,549 524,550 527,550 530,550 533,550 536,550 539,550 542,550 545,550 548,550 551,550 554,550 557,550 560,550 563,550 566,550 569,550 572,550 575,550 578,550 581,550 584,549 587,549 590,550 593,549 596,549 599,548 602,547 605,547 608,547 611,549 614,550 617,550 620,550 623,550 626,548 629,547 632,549 635,550 638,550 641,548 644,530 647,498 650,454 653,407 656,369 659,350 662,356 665,386 668,429 671,475 674,514 677,539 680,550 683,550 686,550 689,549 692,549 695,550 698,550 701,549 704,548 707,549 710,550 713,550 716,548 719,530 722,496 725,450 728,401 731,362 734,343 737,351 740,382 743,429 746,477 749,517 752,542 755,550 758,550 761,550 764,547 767,546 770,548 773,550 776,550 779,550 782,549 785,547 788,547 791,547 794,548 797,549 800,549 803,550 806,550 809,550 812,550 815,550 818,549 821,548 824,547 827,547 830,549 833,550 836,550 839,550 842,550 845,547 848,545 851,547 854,550 857,550 860,550 863,532 866,493 869,437 872,375 875,321 878,290 881,293 884,327 887,382 890,444 893,498 896,534 899,550 902,550 905,550 908,546 911,544 914,546 917,549 920,550 923,550 926,550 929,550 932,550 935,550 938,550 941,550 944,550 947,549 950,548 953,547 956,546 959,547 962,548 965,549 968,550 971,550 974,550 977,550 980,550 983,549 986,548 989,547 992,547 995,547 998,547 1001,548 1004,548 1007,549 1010,549 1013,550 1016,550 1019,550 1022,550 1025,550 1028,549 1031,549 1034,548 1037,548 1040,548 1043,549 1046,549 1049,550 1052,550 1055,550 1058,550 1061,550 1064,550 1067,549 1070,549 1073,548 1076,548 1079,548 1082,549 1085,549 1088,550 1091,550 1094,550 1097,550 1100,549 1103,549 1106,548 1109,547 1112,547 1115,548 1118,548 1121,549 1124,550 1127,550 1130,550 1133,550 1136,550 1139,549 1142,548 1145,547 1148,546 1151,547 1154,548 1157,549 1160,550 1163,550 1166,550 1169,550 1172,550 1175,550 1178,550 1181,550 1184,550 1187,548 1190,545 1193,544 1196,547 1199,550 1202,550 1205,549 1208,527 1211,489 1214,438 1217,387 1220,349 1223,336 1226,351 1229,388 1232,438 1235,486 1238,525 1241,550 1244,550 1247,550 1250,527 1253,484 1256,425 1259,364 1262,314 1265,291 1268,300 1271,342 1274,402 1277,467 1280,521 1283,550 1286,550 1289,542 1292,503 1295,450 1298,395 1301,350 1304,327 1307,333 1310,366 1313,417 1316,473 1319,521 1322,550 1325,550 1328,543 1331,507 1334,461 1337,415 1340,379 1343,364 1346,373 1349,403 1352,446 1355,489 1358,524 1361,545 1364,550 1367,550 1370,548 1373,545 1376,545 1379,547 1382,549 1385,550 1388,550 1391,550 1394,550 1397,550 1400,550 1403,549 1406,549 1409,548 1412,547 1415,547 1418,548 1421,549 1424,549 1427,550 1430,550 1433,550 1436,550 1439,549 1442,549 1445,548 1448,548 1451,548 1454,548 1457,549 1460,549 1463,550 1466,550 1469,550 1472,550 1475,550 1478,550 1481,550 1484,550 1487,550 1490,550 1493,549 1496,549 1499,549 1502,549 1505,549 1508,549 1511,550 1514,550 1517,550 1520,550 1523,550 1526,550 1529,550 1532,550 1535,550 1538,550 1541,549 1544,548 1547,549" fill="none" stroke="red" stroke-width="1.5"/>
  <line x1="77" y1="550" x2="77" y2="80" stroke="#BBBBBB" stroke-width="0.5" stroke-dasharray="2,2"/>
  <text x="77" y="70" text-anchor="middle" fill="blue" font-family="monospace" font-weight="bold" font-size="14">
    C
  </text>
  <line x1="110" y1="550" x2="110" y2="80" stroke="#BBBBBB" stroke-width="0.5" stroke-dasharray="2,2"/>
  <text x="110" y="70" text-anchor="middle" fill="red" font-family="monospace" font-weight="bold" font-size="14">
    T
  </text>
  <line x1="137" y1="550" x2="137" y2="80" stroke="#BBBBBB" stroke-width="0.5" stroke-dasharray="2,2"/>
  <text x="137" y="70" text-anchor="middle" fill="green" font-family="monospace" font-weight="bold" font-size="14">
    A
  </text>
  <line x1="170" y1="550" x2="170" y2="80" stroke="#BBBBBB" stroke-width="0.5" stroke-dasharray="2,2"/>
  <text x="170" y="70" text-anchor="middle" fill="black" font-family="monospace" font-weight="bold" font-size="14">
    G
  </text>
  <line x1="218" y1="550" x2="218" y2="80" stroke="#BBBBBB" stroke-width="0.5" stroke-dasharray="2,2"/>
  <text x="218" y="70" text-anchor="middle" fill="blue" font-family="monospace" font-weight="bold" font-size="14">
    C
  </text>
  <line x1="254" y1="550" x2="254" y2="80" stroke="#BBBBBB" stroke-width="0.5" stroke-dasharray="2,2"/>
  <text x="254" y="70" text-anchor="middle" fill="black" font-family="monospace" font-weight="bold" font-size="14">
    G
  </text>
  <line x1="293" y1="550" x2="293" y2="80" stroke="#BBBBBB" stroke-width="0.5" stroke-dasharray="2,2"/>
  <text x="293" y="70" text-anchor="middle" fill="red" font-family="monospace" font-weight="bold" font-size="14">
    T
  </text>
  <line x1="335" y1="550" x2="335" y2="80" stroke="#BBBBBB" stroke-width="0.5" stroke-dasharray="2,2"/>
  <text x="335" y="70" text-anchor="middle" fill="blue" font-family="monospace" font-weight="bold" font-size="14">
    C
  </text>
  <line x1="368" y1="550" x2="368" y2="80" stroke="#BBBBBB" stroke-width="0.5" stroke-dasharray="2,2"/>
  <text x="368" y="70" text-anchor="middle" fill="black" font-family="monospace" font-weight="bold" font-size="14">
    G
  </text>
  <line x1="407" y1="550" x2="407" y2="80" stroke="#BBBBBB" stroke-width="0.5" stroke-dasharray="2,2"/>
  <text x="407" y="70" text-anchor="middle" fill="green" font-family="monospace" font-weight="bold" font-size="14">
    A
  </text>
  <line x1="431" y1="550" x2="431" y2="80" stroke="#BBBBBB" stroke-width="0.5" stroke-dasharray="2,2"/>
  <text x="431" y="70" text-anchor="middle" fill="black" font-family="monospace" font-weight="bold" font-size="14">
    G
  </text>
  <line x1="479" y1="550" x2="479" y2="80" stroke="#BBBBBB" stroke-width="0.5" stroke-dasharray="2,2"/>
  <text x="479" y="70" text-anchor="middle" fill="blue" font-family="monospace" font-weight="bold" font-size="14">
    C
  </text>
  <line x1="524" y1="550" x2="524" y2="80" stroke="#BBBBBB" stroke-width="0.5" stroke-dasharray="2,2"/>
  <text x="524" y="70" text-anchor="middle" fill="blue" font-family="monospace" font-weight="bold" font-size="14">
    C
  </text>
  <line x1="554" y1="550" x2="554" y2="80" stroke="#BBBBBB" stroke-width="0.5" stroke-dasharray="2,2"/>
  <text x="554" y="70" text-anchor="middle" fill="blue" font-family="monospace" font-weight="bold" font-size="14">
    C
  </text>
  <line x1="587" y1="550" x2="587" y2="80" stroke="#BBBBBB" stroke-width="0.5" stroke-dasharray="2,2"/>
  <text x="587" y="70" text-anchor="middle" fill="blue" font-family="monospace" font-weight="bold" font-size="14">
    C
  </text>
  <line x1="623" y1="550" x2="623" y2="80" stroke="#BBBBBB" stroke-width="0.5" stroke-dasharray="2,2"/>
  <text x="623" y="70" text-anchor="middle" fill="blue" font-family="monospace" font-weight="bold" font-size="14">
    C
  </text>
  <line x1="659" y1="550" x2="659" y2="80" stroke="#BBBBBB" stroke-width="0.5" stroke-dasharray="2,2"/>
  <text x="659" y="70" text-anchor="middle" fill="red" font-family="monospace" font-weight="bold" font-size="14">
    T
  </text>
  <line x1="701" y1="550" x2="701" y2="80" stroke="#BBBBBB" stroke-width="0.5" stroke-dasharray="2,2"/>
  <text x="701" y="70" text-anchor="middle" fill="blue" font-family="monospace" font-weight="bold" font-size="14">
    C
  </text>
  <line x1="734" y1="550" x2="734" y2="80" stroke="#BBBBBB" stroke-width="0.5" stroke-dasharray="2,2"/>
  <text x="734" y="70" text-anchor="middle" fill="red" font-family="monospace" font-weight="bold" font-size="14">
    T
  </text>
  <line x1="767" y1="550" x2="767" y2="80" stroke="#BBBBBB" stroke-width="0.5" stroke-dasharray="2,2"/>
  <text x="767" y="70" text-anchor="middle" fill="black" font-family="monospace" font-weight="bold" font-size="14">
    G
  </text>
  <line x1="812" y1="550" x2="812" y2="80" stroke="#BBBBBB" stroke-width="0.5" stroke-dasharray="2,2"/>
  <text x="812" y="70" text-anchor="middle" fill="green" font-family="monospace" font-weight="bold" font-size="14">
    A
  </text>
  <line x1="830" y1="550" x2="830" y2="80" stroke="#BBBBBB" stroke-width="0.5" stroke-dasharray="2,2"/>
  <text x="830" y="70" text-anchor="middle" fill="black" font-family="monospace" font-weight="bold" font-size="14">
    G
  </text>
  <line x1="878" y1="550" x2="878" y2="80" stroke="#BBBBBB" stroke-width="0.5" stroke-dasharray="2,2"/>
  <text x="878" y="70" text-anchor="middle" fill="red" font-family="monospace" font-weight="bold" font-size="14">
    T
  </text>
  <line x1="923" y1="550" x2="923" y2="80" stroke="#BBBBBB" stroke-width="0.5" stroke-dasharray="2,2"/>
  <text x="923" y="70" text-anchor="middle" fill="blue" font-family="monospace" font-weight="bold" font-size="14">
    C
  </text>
  <line x1="935" y1="550" x2="935" y2="80" stroke="#BBBBBB" stroke-width="0.5" stroke-dasharray="2,2"/>
  <text x="935" y="70" text-anchor="middle" fill="green" font-family="monospace" font-weight="bold" font-size="14">
    A
  </text>
  <line x1="974" y1="550" x2="974" y2="80" stroke="#BBBBBB" stroke-width="0.5" stroke-dasharray="2,2"/>
  <text x="974" y="70" text-anchor="middle" fill="black" font-family="monospace" font-weight="bold" font-size="14">
    G
  </text>
  <line x1="1013" y1="550" x2="1013" y2="80" stroke="#BBBBBB" stroke-width="0.5" stroke-dasharray="2,2"/>
  <text x="1013" y="70" text-anchor="middle" fill="black" font-family="monospace" font-weight="bold" font-size="14">
    G
  </text>
  <line x1="1061" y1="550" x2="1061" y2="80" stroke="#BBBBBB" stroke-width="0.5" stroke-dasharray="2,2"/>
  <text x="1061" y="70" text-anchor="middle" fill="green" font-family="monospace" font-weight="bold" font-size="14">
    A
  </text>
  <line x1="1094" y1="550" x2="1094" y2="80" stroke="#BBBBBB" stroke-width="0.5" stroke-dasharray="2,2"/>
  <text x="1094" y="70" text-anchor="middle" fill="green" font-family="monospace" font-weight="bold" font-size="14">
    A
  </text>
  <line x1="1127" y1="550" x2="1127" y2="80" stroke="#BBBBBB" stroke-width="0.5" stroke-dasharray="2,2"/>
  <text x="1127" y="70" text-anchor="middle" fill="green" font-family="monospace" font-weight="bold" font-size="14">
    A
  </text>
  <line x1="1157" y1="550" x2="1157" y2="80" stroke="#BBBBBB" stroke-width="0.5" stroke-dasharray="2,2"/>
  <text x="1157" y="70" text-anchor="middle" fill="blue" font-family="monospace" font-weight="bold" font-size="14">
    C
  </text>
  <line x1="1184" y1="550" x2="1184" y2="80" stroke="#BBBBBB" stroke-width="0.5" stroke-dasharray="2,2"/>
  <text x="1184" y="70" text-anchor="middle" fill="green" font-family="monospace" font-weight="bold" font-size="14">
    A
  </text>
  <line x1="1223" y1="550" x2="1223" y2="80" stroke="#BBBBBB" stroke-width="0.5" stroke-dasharray="2,2"/>
  <text x="1223" y="70" text-anchor="middle" fill="red" font-family="monospace" font-weight="bold" font-size="14">
    T
  </text>
  <line x1="1265" y1="550" x2="1265" y2="80" stroke="#BBBBBB" stroke-width="0.5" stroke-dasharray="2,2"/>
  <text x="1265" y="70" text-anchor="middle" fill="red" font-family="monospace" font-weight="bold" font-size="14">
    T
  </text>
  <line x1="1304" y1="550" x2="1304" y2="80" stroke="#BBBBBB" stroke-width="0.5" stroke-dasharray="2,2"/>
  <text x="1304" y="70" text-anchor="middle" fill="red" font-family="monospace" font-weight="bold" font-size="14">
    T
  </text>
  <line x1="1343" y1="550" x2="1343" y2="80" stroke="#BBBBBB" stroke-width="0.5" stroke-dasharray="2,2"/>
  <text x="1343" y="70" text-anchor="middle" fill="red" font-family="monospace" font-weight="bold" font-size="14">
    T
  </text>
  <line x1="1385" y1="550" x2="1385" y2="80" stroke="#BBBBBB" stroke-width="0.5" stroke-dasharray="2,2"/>
  <text x="1385" y="70" text-anchor="middle" fill="blue" font-family="monospace" font-weight="bold" font-size="14">
    C
  </text>
  <line x1="1403" y1="550" x2="1403" y2="80" stroke="#BBBBBB" stroke-width="0.5" stroke-dasharray="2,2"/>
  <text x="1403" y="70" text-anchor="middle" fill="green" font-family="monospace" font-weight="bold" font-size="14">
    A
  </text>
  <line x1="1442" y1="550" x2="1442" y2="80" stroke="#BBBBBB" stroke-width="0.5" stroke-dasharray="2,2"/>
  <text x="1442" y="70" text-anchor="middle" fill="black" font-family="monospace" font-weight="bold" font-size="14">
    G
  </text>
  <line x1="1490" y1="550" x2="1490" y2="80" stroke="#BBBBBB" stroke-width="0.5" stroke-dasharray="2,2"/>
  <text x="1490" y="70" text-anchor="middle" fill="green" font-family="monospace" font-weight="bold" font-size="14">
    A
  </text>
  <line x1="1517" y1="550" x2="1517" y2="80" stroke="#BBBBBB" stroke-width="0.5" stroke-dasharray="2,2"/>
  <text x="1517" y="70" text-anchor="middle" fill="blue" font-family="monospace" font-weight="bold" font-size="14">
    C
  </text>
  <text x="1550" y="590" text-anchor="end" fill="black" font-family="Arial" font-size="12">
    Showing 41 of 809 bases
  </text>
  <line x1="60" y1="105" x2="90" y2="105" stroke="green" stroke-width="2"/>
  <text x="100" y="110" text-anchor="start" fill="green" font-family="Arial" font-size="14" font-weight="bold">
    A
  </text>
  <line x1="140" y1="105" x2="170" y2="105" stroke="blue" stroke-width="2"/>
  <text x="180" y="110" text-anchor="start" fill="blue" font-family="Arial" font-size="14" font-weight="bold">
    C
  </text>
  <line x1="220" y1="105" x2="250" y2="105" stroke="black" stroke-width="2"/>
  <text x="260" y="110" text-anchor="start" fill="black" font-family="Arial" font-size="14" font-weight="bold">
    G
  </text>
  <line x1="300" y1="105" x2="330" y2="105" stroke="red" stroke-width="2"/>
  <text x="340" y="110" text-anchor="start" fill="red" font-family="Arial" font-size="14" font-weight="bold">
    T
  </text>
</svg>
